<?xml version="1.0" encoding="UTF-8"?><svg id="Layer_2" xmlns="http://www.w3.org/2000/svg" viewBox="0 0 1279.97 210"><defs><style>.cls-1,.cls-2{fill:#fff;}.cls-2{font-family:ShipporiMinchoB1-Regular, 'Shippori Mincho B1';font-size:69.39px;}</style></defs><g id="Layer_1-2"><g><g><path class="cls-1" d="M36.4,188.24c-2.25-1.04-4.42-1.56-6.5-1.56-3.29,0-7.28,1.82-11.96,5.46-1.56,1.21-2.77,1.82-3.64,1.82-1.91,0-3.12-1.3-3.64-3.9L.52,146.64l-.52-2.6c0-.35,.22-.69,.65-1.04,.43-.35,.87-.61,1.3-.78,.43-.17,.74-.35,.91-.52,.34-.17,.87-.26,1.56-.26s1.65,.69,2.86,2.08c8.84,12.48,18.98,22.92,30.42,31.33,11.44,8.41,24.87,12.61,40.3,12.61,11.09,0,20.02-2.82,26.78-8.45,6.76-5.63,10.14-13.74,10.14-24.31,0-13.17-7.37-22.79-22.1-28.86-6.76-2.95-15.25-5.98-25.48-9.1-1.73-.52-6.07-1.99-13-4.42-6.93-2.43-13.09-5.03-18.46-7.8-9.71-5.02-16.99-11.52-21.84-19.5-4.85-7.97-7.28-17.07-7.28-27.3,0-8.15,1.91-16.64,5.72-25.48,3.81-8.84,10.44-16.42,19.89-22.75C41.82,3.16,54.25,0,69.68,0c5.54,0,10.88,.61,15.99,1.82,5.11,1.21,11.31,3.12,18.59,5.72,2.95,1.04,5.37,1.56,7.28,1.56,3.47,0,6.67-1.21,9.62-3.64,1.39-1.21,2.69-1.82,3.9-1.82,1.73,0,2.86,1.13,3.38,3.38l11.18,38.22c0,.35,.08,.91,.26,1.69,.17,.78,0,1.43-.52,1.95l-1.56,.78c-1.04,.35-1.82,.52-2.34,.52-.87,0-1.73-.61-2.6-1.82-2.08-3.47-5.81-8.19-11.18-14.17-5.38-5.98-12.66-11.61-21.84-16.9-9.19-5.29-19.41-7.93-30.68-7.93-9.88,0-17.46,1.99-22.75,5.98-5.29,3.99-8.8,8.41-10.53,13.26-1.73,4.85-2.6,9.1-2.6,12.74,0,5.2,1.3,9.88,3.9,14.04,2.6,4.16,6.41,7.63,11.44,10.4,4.68,2.6,11.14,5.29,19.37,8.06,8.23,2.77,13.13,4.42,14.69,4.94,2.25,.69,6.93,2.25,14.04,4.68,7.1,2.43,13.08,4.77,17.94,7.02,23.4,10.75,35.1,26.95,35.1,48.62,0,11.09-2.69,21.15-8.06,30.16-5.38,9.01-13.26,16.16-23.66,21.45-10.4,5.29-22.79,7.93-37.18,7.93-12.66,0-27.47-3.47-44.46-10.4Z"/><path class="cls-1" d="M210.08,188.24c-2.25-1.04-4.42-1.56-6.5-1.56-3.29,0-7.28,1.82-11.96,5.46-1.56,1.21-2.77,1.82-3.64,1.82-1.91,0-3.12-1.3-3.64-3.9l-10.14-43.42-.52-2.6c0-.35,.22-.69,.65-1.04,.43-.35,.87-.61,1.3-.78,.43-.17,.74-.35,.91-.52,.34-.17,.87-.26,1.56-.26s1.65,.69,2.86,2.08c8.84,12.48,18.98,22.92,30.42,31.33,11.44,8.41,24.87,12.61,40.3,12.61,11.09,0,20.02-2.82,26.78-8.45,6.76-5.63,10.14-13.74,10.14-24.31,0-13.17-7.37-22.79-22.1-28.86-6.76-2.95-15.25-5.98-25.48-9.1-1.73-.52-6.07-1.99-13-4.42-6.93-2.43-13.09-5.03-18.46-7.8-9.71-5.02-16.99-11.52-21.84-19.5-4.85-7.97-7.28-17.07-7.28-27.3,0-8.15,1.91-16.64,5.72-25.48,3.81-8.84,10.44-16.42,19.89-22.75C215.5,3.16,227.93,0,243.36,0c5.54,0,10.88,.61,15.99,1.82,5.11,1.21,11.31,3.12,18.59,5.72,2.95,1.04,5.37,1.56,7.28,1.56,3.47,0,6.67-1.21,9.62-3.64,1.39-1.21,2.69-1.82,3.9-1.82,1.73,0,2.86,1.13,3.38,3.38l11.18,38.22c0,.35,.08,.91,.26,1.69,.17,.78,0,1.43-.52,1.95l-1.56,.78c-1.04,.35-1.82,.52-2.34,.52-.87,0-1.73-.61-2.6-1.82-2.08-3.47-5.81-8.19-11.18-14.17-5.38-5.98-12.66-11.61-21.84-16.9-9.19-5.29-19.41-7.93-30.68-7.93-9.88,0-17.46,1.99-22.75,5.98-5.29,3.99-8.8,8.41-10.53,13.26-1.73,4.85-2.6,9.1-2.6,12.74,0,5.2,1.3,9.88,3.9,14.04,2.6,4.16,6.41,7.63,11.44,10.4,4.68,2.6,11.14,5.29,19.37,8.06,8.23,2.77,13.13,4.42,14.69,4.94,2.25,.69,6.93,2.25,14.04,4.68,7.1,2.43,13.08,4.77,17.94,7.02,23.4,10.75,35.1,26.95,35.1,48.62,0,11.09-2.69,21.15-8.06,30.16-5.38,9.01-13.26,16.16-23.66,21.45-10.4,5.29-22.79,7.93-37.18,7.93-12.66,0-27.47-3.47-44.46-10.4Z"/><path class="cls-1" d="M393.9,195.26c-1.21,0-1.82-1.04-1.82-3.12,0-1.73,.6-2.6,1.82-2.6h3.12c14.39,0,21.58-7.54,21.58-22.62V27.04c0-5.89-1.69-10.18-5.07-12.87-3.38-2.69-8.02-4.03-13.91-4.03-1.04,0-2.6,.17-4.68,.52-8.67,1.56-17.77,5.81-27.3,12.74-9.54,6.93-16.55,13.69-21.06,20.28-.7,1.04-1.56,1.56-2.6,1.56-.35,0-.87-.17-1.56-.52-1.21-.69-1.82-1.39-1.82-2.08,0-.52,.17-1.39,.52-2.6l12.74-32.76c1.04-2.95,3.12-4.42,6.24-4.42h156c3.12,0,5.2,1.47,6.24,4.42l12.48,32.76c.52,1.21,.78,2.08,.78,2.6,0,.69-.69,1.39-2.08,2.08-.69,.35-1.21,.52-1.56,.52-.87,0-1.65-.52-2.34-1.56-4.33-6.59-11.35-13.35-21.06-20.28-9.71-6.93-18.81-11.18-27.3-12.74-2.08-.35-3.73-.52-4.94-.52-5.72,0-10.27,1.34-13.65,4.03-3.38,2.69-5.07,6.98-5.07,12.87V166.92c0,15.08,7.19,22.62,21.58,22.62h2.86c1.21,0,1.82,.87,1.82,2.6,0,2.08-.61,3.12-1.82,3.12h-88.14Z"/><path class="cls-1" d="M596.44,182.52c-12.31-10.75-18.46-27.04-18.46-48.88V31.2c0-8.84-2.08-14.78-6.24-17.81-4.16-3.03-9.36-4.55-15.6-4.55h-3.12c-1.21,0-1.82-1.04-1.82-3.12,0-1.91,.61-2.86,1.82-2.86h87.62c1.21,0,1.82,.95,1.82,2.86,0,2.08-.61,3.12-1.82,3.12h-2.86c-6.24,0-11.4,1.52-15.47,4.55-4.08,3.03-6.11,8.97-6.11,17.81V123.76c0,11.79,.87,22.19,2.6,31.2,1.73,9.01,5.93,16.86,12.61,23.53,6.67,6.67,16.77,10.01,30.29,10.01,33.28,0,49.92-24.01,49.92-72.02V33.02c0-7.97-2.25-14.04-6.76-18.2-4.51-4.16-9.62-6.24-15.34-6.24h-2.34c-1.21,0-1.82-.95-1.82-2.86s.61-2.86,1.82-2.86h59.8c1.21,0,1.82,.95,1.82,2.86s-.61,2.86-1.82,2.86h-2.34c-5.72,0-10.88,2.08-15.47,6.24-4.59,4.16-6.89,10.23-6.89,18.2l-.52,91c0,24.09-5.59,42.55-16.77,55.38-11.18,12.83-26.82,19.24-46.93,19.24-28.78,0-49.31-5.37-61.62-16.12Z"/><path class="cls-1" d="M768.43,194.48c-.26-.52-.39-1.3-.39-2.34,0-1.73,.6-2.6,1.82-2.6h2.86c6.24,0,11.44-1.52,15.6-4.55,4.16-3.03,6.24-8.97,6.24-17.81V30.94c0-8.84-2.08-14.78-6.24-17.81-4.16-3.03-9.36-4.55-15.6-4.55h-2.86c-.69,0-1.17-.26-1.43-.78s-.39-1.3-.39-2.34v-.52c0-.69,.52-1.21,1.56-1.56,1.04-.35,2.17-.52,3.38-.52,11.09-.35,28.6-.52,52.52-.52,18.37,0,30.42,.17,36.14,.52,13.87,.87,27.82,4.68,41.86,11.44,14.04,6.76,25.87,17.2,35.49,31.33,9.62,14.13,14.43,31.94,14.43,53.43s-4.81,39.3-14.43,53.43c-9.62,14.13-21.45,24.57-35.49,31.33-14.04,6.76-28,10.57-41.86,11.44-5.55,.35-17.33,.52-35.36,.52-16.99,0-35.79-.17-56.42-.52-.69,0-1.17-.26-1.43-.78Zm85.93-7.02c9.36,0,18.46-2.43,27.3-7.28,8.84-4.85,16.34-13.87,22.49-27.04,6.15-13.17,9.23-31.2,9.23-54.08s-3.08-40.91-9.23-54.08c-6.15-13.17-13.65-22.19-22.49-27.04-8.84-4.85-17.94-7.28-27.3-7.28h-1.82c-7.98,0-13.52,1.21-16.64,3.64-3.12,2.43-4.68,6.67-4.68,12.74V171.08c0,6.24,1.56,10.53,4.68,12.87s8.67,3.51,16.64,3.51h1.82Z"/><path class="cls-1" d="M980.19,195.26c-1.21,0-1.82-1.04-1.82-3.12,0-1.91,.6-2.86,1.82-2.86h2.86c6.24,0,11.4-1.56,15.47-4.68,4.07-3.12,6.11-9.01,6.11-17.68l.26-135.72c0-8.84-2.08-14.78-6.24-17.81-4.16-3.03-9.36-4.55-15.6-4.55h-2.86c-1.21,0-1.82-1.04-1.82-3.12,0-1.91,.6-2.86,1.82-2.86h87.88c1.21,0,1.82,.95,1.82,2.86,0,2.08-.61,3.12-1.82,3.12h-2.86c-6.24,0-11.4,1.52-15.47,4.55-4.07,3.03-6.11,8.97-6.11,17.81l-.26,135.72c0,8.84,2.08,14.78,6.24,17.81,4.16,3.03,9.36,4.55,15.6,4.55h2.86c1.21,0,1.82,.95,1.82,2.86,0,2.08-.61,3.12-1.82,3.12h-87.88Z"/><path class="cls-1" d="M1142.95,187.2c-14.39-7.63-26.22-18.94-35.49-33.93-9.27-14.99-13.91-32.98-13.91-53.95s4.64-38.7,13.91-53.69c9.27-14.99,21.1-26.35,35.49-34.06,14.38-7.71,29.03-11.57,43.94-11.57s29.29,3.86,43.68,11.57c14.38,7.71,26.21,19.07,35.49,34.06,9.27,14.99,13.91,32.89,13.91,53.69s-4.64,38.96-13.91,53.95c-9.27,15-21.1,26.3-35.49,33.93-14.39,7.63-28.95,11.44-43.68,11.44s-29.55-3.81-43.94-11.44Zm70.72-6.5c7.8-6.76,13.95-16.99,18.46-30.68,4.5-13.69,6.76-30.5,6.76-50.44s-2.21-36.75-6.63-50.44c-4.42-13.69-10.53-23.92-18.33-30.68-7.8-6.76-16.73-10.14-26.78-10.14s-19.24,3.38-27.04,10.14c-7.8,6.76-13.95,16.99-18.46,30.68-4.51,13.69-6.76,30.51-6.76,50.44s2.21,36.75,6.63,50.44c4.42,13.69,10.57,23.92,18.46,30.68,7.89,6.76,16.86,10.14,26.91,10.14s18.98-3.38,26.78-10.14Z"/></g></g></g></svg>